# xmcd
#
# Track frame offsets:
#	150
#	18531
#	26598
#	41109
#	51014
#	62943
#	73673
#	85149
#	102477
#	128661
#	140229
#	152460
#	166940
#	192444
#	205870
#	230398
#	253089
#	262992
#	273416
#
# Disc length: 3900 seconds
#
# Revision: 1
# Processed by: cddbd v1.5.2PL0 Copyright (c) Steve Scherf et al.
# Submitted via: audiograbber 1.83.01
#
DISCID=130f3a13
DTITLE=James Cotton - Feelin' Good [Acrobat/Hepcat]
DYEAR=1900
DGENRE=
TTITLE0=V-8 Ford Blues
TTITLE1=Polly Pit The Kettle On
TTITLE2=So Glad I'm Living
TTITLE3=Diggin' My Potatoes
TTITLE4=Three Harp Boogie
TTITLE5=Turn On Your Lovelight
TTITLE6=Good Time Charlie
TTITLE7=Something On Your Mind
TTITLE8=Don't Start Me Talking
TTITLE9=Jelly, Jelly
TTITLE10=Off The Wall
TTITLE11=Feelin' Good
TTITLE12=Sweet Sixteen
TTITLE13=Knock On Wood
TTITLE14=Blues In My Sleep
TTITLE15=Darling With The Devil
TTITLE16=You Know It Ain't Right
TTITLE17=I Need You So Bad
TTITLE18=The Creeper
EXTD=
EXTT0=
EXTT1=
EXTT2=
EXTT3=
EXTT4=
EXTT5=
EXTT6=
EXTT7=
EXTT8=
EXTT9=
EXTT10=
EXTT11=
EXTT12=
EXTT13=
EXTT14=
EXTT15=
EXTT16=
EXTT17=
EXTT18=
PLAYORDER=
